<?xml version="1.0" encoding="UTF-8" standalone="no"?>
<!DOCTYPE svg PUBLIC "-//W3C//DTD SVG 1.1//EN" "http://www.w3.org/Graphics/SVG/1.1/DTD/svg11.dtd">
<svg width="100%" height="100%" viewBox="0 0 32 32" version="1.1" xmlns="http://www.w3.org/2000/svg" xmlns:xlink="http://www.w3.org/1999/xlink" xml:space="preserve" xmlns:serif="http://www.serif.com/" style="fill-rule:evenodd;clip-rule:evenodd;stroke-linejoin:round;stroke-miterlimit:2;">
    <g transform="matrix(1,0,0,1,-48994.9,-792)">
        <g transform="matrix(0.135593,0,0,0.135593,42357.2,684.61)">
            <g transform="matrix(7.375,0,0,7.375,-303907,-7611.81)">
                <g transform="matrix(0.042305,0,0,0.042305,47852.4,1153.5)">
                    <path d="M388.101,95.609L220.165,1.913C215.544,-0.638 209.938,-0.638 205.317,1.913L36.869,95.609C32.114,98.355 29.186,103.43 29.189,108.921L29.189,292.729C29.141,297.837 31.636,302.635 35.845,305.529L203.781,422.777C209.024,426.383 215.946,426.383 221.189,422.777L389.637,305.529C393.846,302.635 396.341,297.837 396.293,292.729L396.293,108.921C396.193,103.322 393.054,98.222 388.101,95.609ZM197.125,187.769L76.293,108.921L197.125,41.337L197.125,187.769ZM365.061,285.049L227.845,380.793L227.845,224.121L365.061,135.033L365.061,285.049Z" style="fill:white;fill-rule:nonzero;"/>
                </g>
                <g transform="matrix(1,0,0,1,47847.6,1139.5)">
                    <g>
                        <g transform="matrix(-1,1.22465e-16,-1.22465e-16,-1,25.4318,26.358)">
                            <g transform="matrix(0.469091,0.88315,-0.88315,0.469091,16.8686,13.014)">
                                <path d="M5.262,8.517C5.348,8.514 5.426,8.464 5.465,8.387C5.504,8.31 5.497,8.218 5.448,8.147L4.327,6.522L4.26,4.549C4.257,4.463 4.207,4.385 4.13,4.346C4.053,4.308 3.961,4.314 3.889,4.363L2.264,5.484L0.292,5.551C0.206,5.554 0.128,5.604 0.089,5.681C0.05,5.758 0.057,5.85 0.106,5.921L1.227,7.546L1.294,9.519C1.297,9.605 1.347,9.683 1.424,9.722C1.501,9.761 1.593,9.754 1.664,9.705L3.289,8.584L5.262,8.517Z" style="fill:white;fill-rule:nonzero;"/>
                            </g>
                            <g transform="matrix(0.866025,0.5,-0.5,0.866025,14.0711,13.2859)">
                                <path d="M6.255,3.591L7.88,3.595L9.247,4.475C9.319,4.522 9.412,4.525 9.488,4.484C9.564,4.443 9.611,4.364 9.611,4.277L9.615,2.652L10.495,1.285C10.542,1.214 10.545,1.121 10.504,1.045C10.463,0.969 10.384,0.922 10.297,0.922L8.673,0.919L7.306,0.039C7.234,-0.01 7.141,-0.013 7.065,0.028C6.989,0.069 6.942,0.148 6.942,0.235L6.938,1.861L6.058,3.228C6.011,3.3 6.008,3.393 6.049,3.469C6.09,3.544 6.168,3.591 6.255,3.591Z" style="fill:white;fill-rule:nonzero;"/>
                            </g>
                            <g transform="matrix(0.866025,0.5,-0.5,0.866025,11.0711,7.28589)">
                                <path d="M6.255,3.591L7.88,3.595L9.247,4.475C9.319,4.522 9.412,4.525 9.488,4.484C9.564,4.443 9.611,4.364 9.611,4.277L9.615,2.652L10.495,1.285C10.542,1.214 10.545,1.121 10.504,1.045C10.463,0.969 10.384,0.922 10.297,0.922L8.673,0.919L7.306,0.039C7.234,-0.01 7.141,-0.013 7.065,0.028C6.989,0.069 6.942,0.148 6.942,0.235L6.938,1.861L6.058,3.228C6.011,3.3 6.008,3.393 6.049,3.469C6.09,3.544 6.168,3.591 6.255,3.591Z" style="fill:white;fill-rule:nonzero;"/>
                            </g>
                            <g transform="matrix(0.866025,0.5,-0.5,0.866025,18.0711,13.193)">
                                <path d="M12.183,7.035L12.901,6.946L13.554,7.258C13.632,7.296 13.724,7.287 13.794,7.237C13.864,7.186 13.901,7.102 13.89,7.016L13.801,6.298L14.113,5.645C14.151,5.567 14.142,5.475 14.092,5.405C14.041,5.337 13.957,5.3 13.871,5.31L13.153,5.399L12.5,5.087C12.422,5.049 12.33,5.058 12.26,5.108C12.19,5.159 12.153,5.243 12.164,5.33L12.253,6.048L11.941,6.7C11.903,6.778 11.912,6.871 11.962,6.94C12.013,7.01 12.097,7.047 12.183,7.035Z" style="fill:white;fill-rule:nonzero;"/>
                            </g>
                            <g transform="matrix(0.866025,0.5,-0.5,0.866025,11.9149,13.193)">
                                <path d="M12.183,7.035L12.901,6.946L13.554,7.258C13.632,7.296 13.724,7.287 13.794,7.237C13.864,7.186 13.901,7.102 13.89,7.016L13.801,6.298L14.113,5.645C14.151,5.567 14.142,5.475 14.092,5.405C14.041,5.337 13.957,5.3 13.871,5.31L13.153,5.399L12.5,5.087C12.422,5.049 12.33,5.058 12.26,5.108C12.19,5.159 12.153,5.243 12.164,5.33L12.253,6.048L11.941,6.7C11.903,6.778 11.912,6.871 11.962,6.94C12.013,7.01 12.097,7.047 12.183,7.035Z" style="fill:white;fill-rule:nonzero;"/>
                            </g>
                            <g transform="matrix(0.866025,0.5,-0.5,0.866025,18.0711,7.61788)">
                                <path d="M12.183,7.035L12.901,6.946L13.554,7.258C13.632,7.296 13.724,7.287 13.794,7.237C13.864,7.186 13.901,7.102 13.89,7.016L13.801,6.298L14.113,5.645C14.151,5.567 14.142,5.475 14.092,5.405C14.041,5.337 13.957,5.3 13.871,5.31L13.153,5.399L12.5,5.087C12.422,5.049 12.33,5.058 12.26,5.108C12.19,5.159 12.153,5.243 12.164,5.33L12.253,6.048L11.941,6.7C11.903,6.778 11.912,6.871 11.962,6.94C12.013,7.01 12.097,7.047 12.183,7.035Z" style="fill:white;fill-rule:nonzero;"/>
                            </g>
                        </g>
                        <g transform="matrix(6.12323e-17,-1,1,6.12323e-17,8.91552,29.8576)">
                            <path d="M29.421,18.38L28.606,17.566L19.522,8.482C19.229,8.189 18.845,8.044 18.46,8.044C18.075,8.044 17.691,8.19 17.398,8.482C16.813,9.067 16.812,10.017 17.398,10.603L26.155,19.36L27.299,20.503C27.885,21.089 28.833,21.089 29.421,20.503C29.567,20.357 29.677,20.189 29.748,20.007C29.821,19.825 29.858,19.634 29.858,19.444C29.86,19.056 29.714,18.672 29.421,18.38ZM20.012,11.8L18.107,9.895C17.912,9.7 17.913,9.383 18.107,9.188C18.235,9.061 18.384,9.042 18.461,9.042C18.538,9.042 18.689,9.061 18.815,9.188L20.719,11.093L20.012,11.8Z" style="fill:white;fill-rule:nonzero;"/>
                        </g>
                    </g>
                </g>
            </g>
        </g>
    </g>
</svg>
