<?xml version="1.0" encoding="UTF-8" standalone="no"?>
<!DOCTYPE svg PUBLIC "-//W3C//DTD SVG 1.1//EN" "http://www.w3.org/Graphics/SVG/1.1/DTD/svg11.dtd">
<svg width="100%" height="100%" viewBox="0 0 32 32" version="1.1" xmlns="http://www.w3.org/2000/svg" xmlns:xlink="http://www.w3.org/1999/xlink" xml:space="preserve" xmlns:serif="http://www.serif.com/" style="fill-rule:evenodd;clip-rule:evenodd;stroke-linejoin:round;stroke-miterlimit:2;">
    <g transform="matrix(1,0,0,1,-48953,-792)">
        <g id="Artboard4" transform="matrix(0.135593,0,0,0.135593,42315.3,684.61)">
            <rect x="48953" y="792" width="236" height="236" style="fill:none;"/>
            <clipPath id="_clip1">
                <rect x="48953" y="792" width="236" height="236"/>
            </clipPath>
            <g clip-path="url(#_clip1)">
                <g transform="matrix(7.375,0,0,7.375,-312075,-5049)">
                    <path d="M48967.9,815.268C48967.9,815.047 48967.8,814.836 48967.6,814.681C48967.5,814.525 48967.3,814.437 48967,814.438L48965.9,814.438L48965.9,814.443C48965.1,814.443 48964.5,815.059 48964.5,815.818L48964.5,817.25L48964.5,817.338L48964.5,817.426L48964.4,817.515L48964.4,817.597L48964.3,817.668L48964.2,817.728C48964.2,817.766 48964.1,817.793 48964,817.805L48963.9,817.813L48963.9,817.805C48963.8,817.793 48963.7,817.766 48963.7,817.728L48963.6,817.675L48963.5,817.603L48963.5,817.524L48963.4,817.443L48963.4,817.363L48963.4,817.272L48963.4,816.671C48963.4,815.751 48962.6,815.006 48961.7,815.006L48961.7,815.006C48961.2,815.006 48960.8,815.176 48960.5,815.478C48960.2,815.78 48960.1,816.19 48960.1,816.617C48960.1,817.458 48960.1,818.313 48960.1,818.313L48960.1,818.401L48960,818.489L48960,818.577L48959.9,818.66L48959.9,818.731L48959.8,818.79C48959.7,818.828 48959.7,818.855 48959.6,818.867L48959.5,818.875L48959.4,818.867C48959.3,818.855 48959.3,818.828 48959.2,818.79L48959.1,818.738L48959.1,818.665L48959,818.587L48959,818.506L48958.9,818.426L48958.9,818.334L48958.9,815.818C48958.9,815.059 48958.3,814.443 48957.6,814.443L48957.6,814.438L48956.6,814.438L48956.6,810.515C48956.6,809.467 48957,808.461 48957.8,807.72C48958.5,806.979 48959.5,806.562 48960.6,806.563L48965.1,806.563C48965.4,806.562 48965.6,806.823 48965.6,807.144L48965.6,807.75C48965.6,808.198 48965.8,808.627 48966.1,808.943C48966.5,809.26 48966.9,809.438 48967.3,809.438C48968.3,809.437 48969,808.682 48969,807.75L48969,807.116C48969,806.81 48969.3,806.563 48969.6,806.563L48969.6,806.563C48969.7,806.563 48969.9,806.621 48970,806.725C48970.1,806.828 48970.1,806.969 48970.1,807.116L48970.1,809.437C48970.1,809.885 48970.3,810.314 48970.6,810.631C48970.9,810.947 48971.4,811.125 48971.8,811.125C48972.7,811.125 48973.5,810.369 48973.5,809.437L48973.5,807.144C48973.5,806.99 48973.6,806.842 48973.7,806.733C48973.8,806.624 48973.9,806.563 48974.1,806.563L48977.4,806.563C48978.5,806.562 48979.5,806.979 48980.2,807.72C48981,808.461 48981.4,809.467 48981.4,810.515L48981.4,814.438L48978.2,814.438L48978.2,814.506C48977.4,814.506 48976.8,815.122 48976.8,815.881L48976.8,818.375L48976.8,818.463L48976.8,818.551L48976.7,818.64L48976.7,818.722L48976.6,818.793L48976.5,818.853C48976.5,818.891 48976.4,818.918 48976.3,818.93L48976.2,818.938L48976.2,818.93C48976.1,818.918 48976,818.891 48976,818.853L48975.9,818.8L48975.8,818.728L48975.8,818.649L48975.7,818.568L48975.7,818.488L48975.7,818.397L48975.7,815.881C48975.7,815.122 48975.1,814.506 48974.3,814.506L48974.3,814.438L48971,814.438C48970.7,814.437 48970.5,814.525 48970.4,814.681C48970.2,814.836 48970.1,815.047 48970.1,815.268L48970.1,820.584C48970.1,821.228 48970.6,821.75 48971.3,821.75L48983.9,821.75C48984.5,821.75 48985,822.254 48985,822.875C48985,823.496 48984.5,824 48983.9,824L48954.1,824C48953.5,824 48953,823.496 48953,822.875C48953,822.254 48953.5,821.75 48954.1,821.75L48966.7,821.75C48967,821.75 48967.3,821.627 48967.5,821.409C48967.8,821.19 48967.9,820.894 48967.9,820.584L48967.9,815.268ZM48965.4,805.5L48961.1,805.5L48961.1,802.263C48961.1,801.331 48961.5,800.438 48962.2,799.779C48962.8,799.12 48963.7,798.75 48964.6,798.75L48968.4,798.75C48968.7,798.75 48969,799.003 48969,799.316L48969,800.437C48969,800.885 48969.2,801.314 48969.5,801.631C48969.8,801.947 48970.2,802.125 48970.7,802.125C48971.6,802.125 48972.4,801.369 48972.4,800.437L48972.4,799.316C48972.4,799.003 48972.6,798.75 48972.9,798.75L48973.4,798.75C48974.3,798.75 48975.2,799.12 48975.8,799.779C48976.5,800.438 48976.9,801.331 48976.9,802.263L48976.9,805.5L48973.8,805.5L48973.8,805.506C48973,805.506 48972.4,806.122 48972.4,806.881L48972.4,809.375L48972.4,809.463L48972.3,809.551L48972.3,809.64L48972.3,809.722L48972.2,809.793L48972.1,809.853C48972,809.891 48972,809.918 48971.9,809.93L48971.8,809.938L48971.7,809.93C48971.6,809.918 48971.6,809.891 48971.5,809.853L48971.4,809.8L48971.4,809.728L48971.3,809.649L48971.3,809.568L48971.3,809.488L48971.2,809.397L48971.2,806.881C48971.2,806.122 48970.6,805.506 48969.9,805.506L48969.9,805.5L48969.2,805.5L48969.2,805.506C48968.5,805.506 48967.9,806.122 48967.9,806.881L48967.9,807.796L48967.9,807.879L48967.8,807.971L48967.8,808.059L48967.7,808.133L48967.7,808.198L48967.6,808.228C48967.5,808.266 48967.5,808.293 48967.4,808.305L48967.3,808.313L48967.2,808.305C48967.1,808.293 48967.1,808.266 48967,808.228L48966.9,808.175L48966.9,808.103L48966.8,808.024L48966.8,807.943L48966.8,807.863L48966.8,807.772L48966.8,806.881C48966.8,806.122 48966.1,805.506 48965.4,805.506L48965.4,805.5ZM48968.8,797.625L48965.1,797.625L48965.1,794.25C48965.1,793.653 48965.3,793.081 48965.7,792.659C48966.1,792.237 48966.7,792 48967.3,792L48970.7,792C48971.3,792 48971.9,792.237 48972.3,792.659C48972.7,793.081 48972.9,793.653 48972.9,794.25L48972.9,797.625L48972.6,797.625L48972.6,797.631C48971.9,797.631 48971.2,798.247 48971.2,799.006L48971.2,800.438L48971.2,800.526L48971.2,800.614L48971.2,800.702L48971.1,800.785L48971.1,800.856L48971,800.915C48970.9,800.953 48970.9,800.98 48970.8,800.992L48970.7,801L48970.6,800.992C48970.5,800.98 48970.5,800.953 48970.4,800.915L48970.3,800.863L48970.2,800.79L48970.2,800.712L48970.2,800.631L48970.1,800.551L48970.1,800.459L48970.1,799.006C48970.1,798.247 48969.5,797.631 48968.8,797.631L48968.8,797.625Z" style="fill:white;"/>
                </g>
            </g>
        </g>
    </g>
</svg>
