<?xml version="1.0" encoding="UTF-8" standalone="no"?>
<!DOCTYPE svg PUBLIC "-//W3C//DTD SVG 1.1//EN" "http://www.w3.org/Graphics/SVG/1.1/DTD/svg11.dtd">
<svg width="100%" height="100%" viewBox="0 0 5746 900" version="1.1" xmlns="http://www.w3.org/2000/svg" xmlns:xlink="http://www.w3.org/1999/xlink" xml:space="preserve" xmlns:serif="http://www.serif.com/" style="fill-rule:evenodd;clip-rule:evenodd;stroke-linejoin:round;stroke-miterlimit:2;">
    <g transform="matrix(1,0,0,1,-26694.9,-1154.95)">
        <g transform="matrix(2.45544,0,0,1,27723.3,558.948)">
            <g transform="matrix(0.40726,0,0,1,-461.991,-9.09495e-13)">
                <g transform="matrix(0.901515,0,0,0.99889,110.689,246.388)">
                    <path d="M1525,666.351C1525,491.635 1368.07,350 1174.48,350L423.521,350C229.934,350 73,491.635 73,666.351L73,934.649C73,1109.37 229.934,1251 423.521,1251L1174.48,1251C1368.07,1251 1525,1109.37 1525,934.649L1525,666.351Z" style="fill:rgb(248,117,170);"/>
                </g>
                <g transform="matrix(0.901515,0,0,0.99889,110.689,246.388)">
                    <path d="M1525,666.351C1525,491.635 1368.07,350 1174.48,350L423.521,350C229.934,350 73,491.635 73,666.351L73,934.649C73,1109.37 229.934,1251 423.521,1251L1174.48,1251C1368.07,1251 1525,1109.37 1525,934.649L1525,666.351ZM1470.28,666.351L1470.28,934.649C1470.28,1082.09 1337.84,1201.61 1174.48,1201.61C1174.48,1201.61 423.521,1201.61 423.521,1201.61C260.156,1201.61 127.723,1082.09 127.723,934.649C127.723,847.664 127.723,753.336 127.723,666.351C127.723,518.912 260.156,399.388 423.521,399.388C651.184,399.388 946.816,399.388 1174.48,399.388C1337.84,399.388 1470.28,518.911 1470.28,666.351Z" style="fill:rgb(49,50,111);"/>
                </g>
                <g transform="matrix(2.07826,0,0,1,-9606.73,-1566)">
                    <path d="M4939.12,2209.33L5184.71,2209.33C5254.44,2209.33 5311.18,2324.93 5312.98,2468.95L5313,2472.11L5313,2748.28C5312.72,2785.15 5308.84,2820.21 5302.06,2852L4950.15,2852C4896.5,2852 4853,2761.6 4853,2650.09L4853,2409.91C4853,2306.16 4890.65,2220.69 4939.12,2209.33Z" style="fill:rgb(251,172,204);"/>
                </g>
                <g transform="matrix(1,0,0,1,68.1268,242)">
                    <path d="M348,1024C348,1011.31 337.694,1001 325,1001C312.306,1001 302,1011.31 302,1024L302,1076C302,1088.69 312.306,1099 325,1099C337.694,1099 348,1088.69 348,1076L348,1024Z" style="fill:rgb(49,50,111);"/>
                    <g transform="matrix(1,0,0,1,125.107,0)">
                        <path d="M348,1024C348,1011.31 337.694,1001 325,1001C312.306,1001 302,1011.31 302,1024L302,1076C302,1088.69 312.306,1099 325,1099C337.694,1099 348,1088.69 348,1076L348,1024Z" style="fill:rgb(49,50,111);"/>
                    </g>
                    <g transform="matrix(1,0,0,1,250.213,0)">
                        <path d="M348,1024C348,1011.31 337.694,1001 325,1001C312.306,1001 302,1011.31 302,1024L302,1076C302,1088.69 312.306,1099 325,1099C337.694,1099 348,1088.69 348,1076L348,1024Z" style="fill:rgb(49,50,111);"/>
                    </g>
                    <g transform="matrix(1,0,0,1,375.32,0)">
                        <path d="M348,1024C348,1011.31 337.694,1001 325,1001C312.306,1001 302,1011.31 302,1024L302,1076C302,1088.69 312.306,1099 325,1099C337.694,1099 348,1088.69 348,1076L348,1024Z" style="fill:rgb(49,50,111);"/>
                    </g>
                    <g transform="matrix(1,0,0,1,500.426,0)">
                        <path d="M348,1024C348,1011.31 337.694,1001 325,1001C312.306,1001 302,1011.31 302,1024L302,1076C302,1088.69 312.306,1099 325,1099C337.694,1099 348,1088.69 348,1076L348,1024Z" style="fill:rgb(49,50,111);"/>
                    </g>
                    <g transform="matrix(1,0,0,1,625.533,0)">
                        <path d="M348,1024C348,1011.31 337.694,1001 325,1001C312.306,1001 302,1011.31 302,1024L302,1076C302,1088.69 312.306,1099 325,1099C337.694,1099 348,1088.69 348,1076L348,1024Z" style="fill:rgb(49,50,111);"/>
                    </g>
                    <g transform="matrix(1,0,0,1,750.64,0)">
                        <path d="M348,1024C348,1011.31 337.694,1001 325,1001C312.306,1001 302,1011.31 302,1024L302,1076C302,1088.69 312.306,1099 325,1099C337.694,1099 348,1088.69 348,1076L348,1024Z" style="fill:rgb(49,50,111);"/>
                    </g>
                    <g transform="matrix(1,0,0,1,875.746,0)">
                        <path d="M348,1024C348,1011.31 337.694,1001 325,1001C312.306,1001 302,1011.31 302,1024L302,1076C302,1088.69 312.306,1099 325,1099C337.694,1099 348,1088.69 348,1076L348,1024Z" style="fill:rgb(49,50,111);"/>
                    </g>
                </g>
                <g transform="matrix(1,0,0,1,30,266)">
                    <path d="M615,512L670,481L701,425L732,481L790,512L732,548L701,603L670,548L615,512Z" style="fill:rgb(235,235,235);"/>
                </g>
                <g transform="matrix(0.696629,0,0,0.696629,788.91,448.933)">
                    <path d="M615,512L670,481L701,425L732,481L790,512L732,548L701,603L670,548L615,512Z" style="fill:rgb(235,235,235);"/>
                </g>
                <g transform="matrix(14.3564,0,0,1,-2951.92,245)">
                    <path d="M314,801C314,719.262 309.385,653 303.691,653C284.317,653 242.683,653 223.309,653C217.615,653 213,719.262 213,801L213,801C213,882.738 217.615,949 223.309,949C242.683,949 284.317,949 303.691,949C309.385,949 314,882.738 314,801L314,801Z" style="fill:rgb(248,117,170);"/>
                </g>
                <g transform="matrix(14.3564,0,0,1,-2951.92,245)">
                    <path d="M314,801C314,719.262 309.385,653 303.691,653C284.317,653 242.683,653 223.309,653C217.615,653 213,719.262 213,801L213,801C213,882.738 217.615,949 223.309,949C242.683,949 284.317,949 303.691,949C309.385,949 314,882.738 314,801L314,801ZM310.564,801L310.564,801C310.564,855.492 307.487,899.667 303.691,899.667C303.691,899.667 223.309,899.667 223.309,899.667C219.513,899.667 216.436,855.492 216.436,801C216.436,801 216.436,801 216.436,801C216.436,746.508 219.513,702.333 223.309,702.333C242.683,702.333 284.317,702.333 303.691,702.333C307.487,702.333 310.564,746.508 310.564,801Z" style="fill:rgb(49,50,111);"/>
                </g>
            </g>
            <g transform="matrix(0.574354,0,0,0.749162,-7851.61,-5572.48)">
                <g transform="matrix(425.445,0,0,800.894,14118,9076.46)">
                    <path d="M0.084,-0.069C0.084,-0.027 0.117,0.006 0.159,0.006C0.201,0.006 0.235,-0.027 0.235,-0.069L0.235,-0.417L0.368,-0.212C0.384,-0.188 0.404,-0.173 0.432,-0.173C0.46,-0.173 0.48,-0.188 0.496,-0.212L0.631,-0.42L0.631,-0.071C0.631,-0.029 0.665,0.006 0.707,0.006C0.75,0.006 0.784,-0.028 0.784,-0.071L0.784,-0.627C0.784,-0.67 0.75,-0.704 0.707,-0.704L0.69,-0.704C0.659,-0.704 0.637,-0.691 0.621,-0.665L0.434,-0.361L0.248,-0.664C0.234,-0.687 0.211,-0.704 0.178,-0.704L0.161,-0.704C0.118,-0.704 0.084,-0.67 0.084,-0.627L0.084,-0.069Z" style="fill:rgb(49,50,111);fill-rule:nonzero;"/>
                </g>
                <g transform="matrix(425.445,0,0,800.894,14478.8,9076.46)">
                    <path d="M0.22,0.01C0.294,0.01 0.345,-0.017 0.382,-0.058L0.382,-0.057C0.382,-0.025 0.411,0.006 0.455,0.006C0.496,0.006 0.529,-0.026 0.529,-0.067L0.529,-0.311C0.529,-0.383 0.511,-0.442 0.471,-0.482C0.433,-0.52 0.373,-0.542 0.29,-0.542C0.219,-0.542 0.167,-0.532 0.119,-0.514C0.095,-0.505 0.078,-0.482 0.078,-0.455C0.078,-0.42 0.106,-0.393 0.141,-0.393C0.148,-0.393 0.154,-0.394 0.163,-0.397C0.192,-0.406 0.226,-0.412 0.268,-0.412C0.344,-0.412 0.383,-0.377 0.383,-0.314L0.383,-0.305C0.345,-0.318 0.306,-0.327 0.252,-0.327C0.125,-0.327 0.036,-0.273 0.036,-0.156L0.036,-0.154C0.036,-0.048 0.119,0.01 0.22,0.01ZM0.266,-0.095C0.217,-0.095 0.183,-0.119 0.183,-0.16L0.183,-0.162C0.183,-0.21 0.223,-0.236 0.288,-0.236C0.325,-0.236 0.359,-0.228 0.385,-0.216L0.385,-0.189C0.385,-0.134 0.337,-0.095 0.266,-0.095Z" style="fill:rgb(49,50,111);fill-rule:nonzero;"/>
                </g>
                <g transform="matrix(425.445,0,0,800.894,14722.1,9076.46)">
                    <path d="M0.321,0.012C0.409,0.012 0.466,-0.016 0.511,-0.057C0.524,-0.069 0.533,-0.085 0.533,-0.105C0.533,-0.141 0.505,-0.17 0.469,-0.17C0.451,-0.17 0.436,-0.162 0.428,-0.156C0.399,-0.133 0.368,-0.119 0.328,-0.119C0.245,-0.119 0.192,-0.185 0.192,-0.267L0.192,-0.269C0.192,-0.348 0.246,-0.415 0.322,-0.415C0.362,-0.415 0.39,-0.402 0.417,-0.381C0.426,-0.374 0.441,-0.366 0.461,-0.366C0.499,-0.366 0.53,-0.396 0.53,-0.434C0.53,-0.46 0.516,-0.478 0.506,-0.486C0.461,-0.524 0.404,-0.546 0.323,-0.546C0.159,-0.546 0.042,-0.42 0.042,-0.267L0.042,-0.265C0.042,-0.112 0.16,0.012 0.321,0.012Z" style="fill:rgb(49,50,111);fill-rule:nonzero;"/>
                </g>
                <g transform="matrix(425.445,0,0,800.894,14956.6,9076.46)">
                    <path d="M0.22,0.01C0.294,0.01 0.345,-0.017 0.382,-0.058L0.382,-0.057C0.382,-0.025 0.411,0.006 0.455,0.006C0.496,0.006 0.529,-0.026 0.529,-0.067L0.529,-0.311C0.529,-0.383 0.511,-0.442 0.471,-0.482C0.433,-0.52 0.373,-0.542 0.29,-0.542C0.219,-0.542 0.167,-0.532 0.119,-0.514C0.095,-0.505 0.078,-0.482 0.078,-0.455C0.078,-0.42 0.106,-0.393 0.141,-0.393C0.148,-0.393 0.154,-0.394 0.163,-0.397C0.192,-0.406 0.226,-0.412 0.268,-0.412C0.344,-0.412 0.383,-0.377 0.383,-0.314L0.383,-0.305C0.345,-0.318 0.306,-0.327 0.252,-0.327C0.125,-0.327 0.036,-0.273 0.036,-0.156L0.036,-0.154C0.036,-0.048 0.119,0.01 0.22,0.01ZM0.266,-0.095C0.217,-0.095 0.183,-0.119 0.183,-0.16L0.183,-0.162C0.183,-0.21 0.223,-0.236 0.288,-0.236C0.325,-0.236 0.359,-0.228 0.385,-0.216L0.385,-0.189C0.385,-0.134 0.337,-0.095 0.266,-0.095Z" style="fill:rgb(49,50,111);fill-rule:nonzero;"/>
                </g>
                <g transform="matrix(425.445,0,0,800.894,15199.9,9076.46)">
                    <path d="M0.068,-0.07C0.068,-0.028 0.102,0.006 0.144,0.006C0.186,0.006 0.22,-0.028 0.22,-0.07L0.22,-0.212C0.22,-0.32 0.263,-0.379 0.34,-0.397C0.371,-0.404 0.397,-0.428 0.397,-0.468C0.397,-0.511 0.37,-0.542 0.323,-0.542C0.278,-0.542 0.242,-0.494 0.22,-0.442L0.22,-0.466C0.22,-0.508 0.186,-0.542 0.144,-0.542C0.102,-0.542 0.068,-0.508 0.068,-0.466L0.068,-0.07Z" style="fill:rgb(49,50,111);fill-rule:nonzero;"/>
                </g>
                <g transform="matrix(425.445,0,0,800.894,15362.9,9076.46)">
                    <path d="M0.331,0.012C0.498,0.012 0.622,-0.113 0.622,-0.267L0.622,-0.269C0.622,-0.423 0.499,-0.546 0.333,-0.546C0.166,-0.546 0.042,-0.421 0.042,-0.267L0.042,-0.265C0.042,-0.111 0.165,0.012 0.331,0.012ZM0.333,-0.119C0.249,-0.119 0.192,-0.188 0.192,-0.267L0.192,-0.269C0.192,-0.348 0.244,-0.415 0.331,-0.415C0.415,-0.415 0.472,-0.346 0.472,-0.267L0.472,-0.265C0.472,-0.186 0.42,-0.119 0.333,-0.119Z" style="fill:rgb(49,50,111);fill-rule:nonzero;"/>
                </g>
                <g transform="matrix(425.445,0,0,800.894,15636.8,9076.46)">
                    <path d="M0.068,-0.07C0.068,-0.028 0.102,0.006 0.144,0.006C0.186,0.006 0.22,-0.028 0.22,-0.07L0.22,-0.299C0.22,-0.371 0.257,-0.408 0.315,-0.408C0.373,-0.408 0.407,-0.371 0.407,-0.299L0.407,-0.07C0.407,-0.028 0.441,0.006 0.483,0.006C0.525,0.006 0.559,-0.028 0.559,-0.07L0.559,-0.347C0.559,-0.47 0.492,-0.546 0.377,-0.546C0.3,-0.546 0.255,-0.505 0.22,-0.46L0.22,-0.466C0.22,-0.508 0.186,-0.542 0.144,-0.542C0.102,-0.542 0.068,-0.508 0.068,-0.466L0.068,-0.07Z" style="fill:rgb(49,50,111);fill-rule:nonzero;"/>
                </g>
                <g transform="matrix(425.445,0,0,800.894,15893.4,9076.46)">
                    <path d="M0.333,0.01C0.484,0.01 0.59,-0.068 0.59,-0.207L0.59,-0.209C0.59,-0.331 0.51,-0.382 0.368,-0.419C0.247,-0.45 0.217,-0.465 0.217,-0.511L0.217,-0.513C0.217,-0.547 0.248,-0.574 0.307,-0.574C0.355,-0.574 0.403,-0.557 0.454,-0.527C0.466,-0.52 0.478,-0.516 0.493,-0.516C0.533,-0.516 0.565,-0.547 0.565,-0.587C0.565,-0.617 0.548,-0.638 0.531,-0.648C0.468,-0.688 0.394,-0.71 0.309,-0.71C0.166,-0.71 0.064,-0.626 0.064,-0.499L0.064,-0.497C0.064,-0.358 0.155,-0.319 0.296,-0.283C0.413,-0.253 0.437,-0.233 0.437,-0.194L0.437,-0.192C0.437,-0.151 0.399,-0.126 0.336,-0.126C0.268,-0.126 0.21,-0.15 0.157,-0.189C0.147,-0.196 0.133,-0.203 0.113,-0.203C0.073,-0.203 0.041,-0.172 0.041,-0.132C0.041,-0.108 0.053,-0.086 0.07,-0.074C0.148,-0.018 0.241,0.01 0.333,0.01Z" style="fill:rgb(49,50,111);fill-rule:nonzero;"/>
                </g>
                <g transform="matrix(425.445,0,0,800.894,16152.9,9076.46)">
                    <path d="M0.251,0.01L0.256,0.01C0.293,0.01 0.324,-0.011 0.338,-0.055L0.424,-0.325L0.509,-0.055C0.523,-0.011 0.554,0.01 0.591,0.01L0.596,0.01C0.633,0.01 0.664,-0.011 0.68,-0.058L0.815,-0.441C0.817,-0.448 0.82,-0.462 0.82,-0.472C0.82,-0.51 0.791,-0.542 0.749,-0.542C0.709,-0.542 0.686,-0.516 0.676,-0.484L0.592,-0.21L0.507,-0.482C0.496,-0.518 0.468,-0.543 0.429,-0.543L0.42,-0.543C0.381,-0.543 0.353,-0.518 0.342,-0.482L0.258,-0.211L0.176,-0.483C0.165,-0.518 0.14,-0.542 0.102,-0.542C0.057,-0.542 0.029,-0.508 0.029,-0.473C0.029,-0.46 0.033,-0.445 0.036,-0.436L0.167,-0.058C0.183,-0.011 0.214,0.01 0.251,0.01Z" style="fill:rgb(49,50,111);fill-rule:nonzero;"/>
                </g>
                <g transform="matrix(425.445,0,0,800.894,16503.5,9076.46)">
                    <path d="M0.22,0.01C0.294,0.01 0.345,-0.017 0.382,-0.058L0.382,-0.057C0.382,-0.025 0.411,0.006 0.455,0.006C0.496,0.006 0.529,-0.026 0.529,-0.067L0.529,-0.311C0.529,-0.383 0.511,-0.442 0.471,-0.482C0.433,-0.52 0.373,-0.542 0.29,-0.542C0.219,-0.542 0.167,-0.532 0.119,-0.514C0.095,-0.505 0.078,-0.482 0.078,-0.455C0.078,-0.42 0.106,-0.393 0.141,-0.393C0.148,-0.393 0.154,-0.394 0.163,-0.397C0.192,-0.406 0.226,-0.412 0.268,-0.412C0.344,-0.412 0.383,-0.377 0.383,-0.314L0.383,-0.305C0.345,-0.318 0.306,-0.327 0.252,-0.327C0.125,-0.327 0.036,-0.273 0.036,-0.156L0.036,-0.154C0.036,-0.048 0.119,0.01 0.22,0.01ZM0.266,-0.095C0.217,-0.095 0.183,-0.119 0.183,-0.16L0.183,-0.162C0.183,-0.21 0.223,-0.236 0.288,-0.236C0.325,-0.236 0.359,-0.228 0.385,-0.216L0.385,-0.189C0.385,-0.134 0.337,-0.095 0.266,-0.095Z" style="fill:rgb(49,50,111);fill-rule:nonzero;"/>
                </g>
                <g transform="matrix(425.445,0,0,800.894,16746.8,9076.46)">
                    <path d="M0.068,0.09C0.068,0.132 0.102,0.166 0.144,0.166C0.186,0.166 0.22,0.132 0.22,0.09L0.22,-0.07C0.256,-0.027 0.306,0.01 0.387,0.01C0.514,0.01 0.631,-0.088 0.631,-0.267L0.631,-0.269C0.631,-0.448 0.512,-0.546 0.387,-0.546C0.308,-0.546 0.257,-0.509 0.22,-0.459L0.22,-0.466C0.22,-0.508 0.186,-0.542 0.144,-0.542C0.102,-0.542 0.068,-0.508 0.068,-0.466L0.068,0.09ZM0.348,-0.119C0.277,-0.119 0.218,-0.178 0.218,-0.267L0.218,-0.269C0.218,-0.358 0.277,-0.417 0.348,-0.417C0.419,-0.417 0.479,-0.358 0.479,-0.269L0.479,-0.267C0.479,-0.177 0.419,-0.119 0.348,-0.119Z" style="fill:rgb(49,50,111);fill-rule:nonzero;"/>
                </g>
            </g>
        </g>
    </g>
</svg>
