<?xml version="1.0" encoding="UTF-8" standalone="no"?>
<!DOCTYPE svg PUBLIC "-//W3C//DTD SVG 1.1//EN" "http://www.w3.org/Graphics/SVG/1.1/DTD/svg11.dtd">
<svg width="100%" height="100%" viewBox="0 0 1450 900" version="1.1" xmlns="http://www.w3.org/2000/svg" xmlns:xlink="http://www.w3.org/1999/xlink" xml:space="preserve" xmlns:serif="http://www.serif.com/" style="fill-rule:evenodd;clip-rule:evenodd;stroke-linejoin:round;stroke-miterlimit:2;">
    <g transform="matrix(1,0,0,1,-26694.9,-1154.95)">
        <g transform="matrix(2.45544,0,0,1,27723.3,558.948)">
            <g transform="matrix(0.40726,0,0,1,-461.991,-9.09495e-13)">
                <g transform="matrix(0.901515,0,0,0.99889,110.689,246.388)">
                    <path d="M1525,666.351C1525,491.635 1368.07,350 1174.48,350L423.521,350C229.934,350 73,491.635 73,666.351L73,934.649C73,1109.37 229.934,1251 423.521,1251L1174.48,1251C1368.07,1251 1525,1109.37 1525,934.649L1525,666.351Z" style="fill:rgb(248,117,170);"/>
                </g>
                <g transform="matrix(0.901515,0,0,0.99889,110.689,246.388)">
                    <path d="M1525,666.351C1525,491.635 1368.07,350 1174.48,350L423.521,350C229.934,350 73,491.635 73,666.351L73,934.649C73,1109.37 229.934,1251 423.521,1251L1174.48,1251C1368.07,1251 1525,1109.37 1525,934.649L1525,666.351ZM1470.28,666.351L1470.28,934.649C1470.28,1082.09 1337.84,1201.61 1174.48,1201.61C1174.48,1201.61 423.521,1201.61 423.521,1201.61C260.156,1201.61 127.723,1082.09 127.723,934.649C127.723,847.664 127.723,753.336 127.723,666.351C127.723,518.912 260.156,399.388 423.521,399.388C651.184,399.388 946.816,399.388 1174.48,399.388C1337.84,399.388 1470.28,518.911 1470.28,666.351Z" style="fill:rgb(49,50,111);"/>
                </g>
                <g transform="matrix(2.07826,0,0,1,-9606.73,-1566)">
                    <path d="M4939.12,2209.33L5184.71,2209.33C5254.44,2209.33 5311.18,2324.93 5312.98,2468.95L5313,2472.11L5313,2748.28C5312.72,2785.15 5308.84,2820.21 5302.06,2852L4950.15,2852C4896.5,2852 4853,2761.6 4853,2650.09L4853,2409.91C4853,2306.16 4890.65,2220.69 4939.12,2209.33Z" style="fill:rgb(251,172,204);"/>
                </g>
                <g transform="matrix(1,0,0,1,68.1268,242)">
                    <path d="M348,1024C348,1011.31 337.694,1001 325,1001C312.306,1001 302,1011.31 302,1024L302,1076C302,1088.69 312.306,1099 325,1099C337.694,1099 348,1088.69 348,1076L348,1024Z" style="fill:rgb(49,50,111);"/>
                    <g transform="matrix(1,0,0,1,125.107,0)">
                        <path d="M348,1024C348,1011.31 337.694,1001 325,1001C312.306,1001 302,1011.31 302,1024L302,1076C302,1088.69 312.306,1099 325,1099C337.694,1099 348,1088.69 348,1076L348,1024Z" style="fill:rgb(49,50,111);"/>
                    </g>
                    <g transform="matrix(1,0,0,1,250.213,0)">
                        <path d="M348,1024C348,1011.31 337.694,1001 325,1001C312.306,1001 302,1011.31 302,1024L302,1076C302,1088.69 312.306,1099 325,1099C337.694,1099 348,1088.69 348,1076L348,1024Z" style="fill:rgb(49,50,111);"/>
                    </g>
                    <g transform="matrix(1,0,0,1,375.32,0)">
                        <path d="M348,1024C348,1011.31 337.694,1001 325,1001C312.306,1001 302,1011.31 302,1024L302,1076C302,1088.69 312.306,1099 325,1099C337.694,1099 348,1088.69 348,1076L348,1024Z" style="fill:rgb(49,50,111);"/>
                    </g>
                    <g transform="matrix(1,0,0,1,500.426,0)">
                        <path d="M348,1024C348,1011.31 337.694,1001 325,1001C312.306,1001 302,1011.31 302,1024L302,1076C302,1088.69 312.306,1099 325,1099C337.694,1099 348,1088.69 348,1076L348,1024Z" style="fill:rgb(49,50,111);"/>
                    </g>
                    <g transform="matrix(1,0,0,1,625.533,0)">
                        <path d="M348,1024C348,1011.31 337.694,1001 325,1001C312.306,1001 302,1011.31 302,1024L302,1076C302,1088.69 312.306,1099 325,1099C337.694,1099 348,1088.69 348,1076L348,1024Z" style="fill:rgb(49,50,111);"/>
                    </g>
                    <g transform="matrix(1,0,0,1,750.64,0)">
                        <path d="M348,1024C348,1011.31 337.694,1001 325,1001C312.306,1001 302,1011.31 302,1024L302,1076C302,1088.69 312.306,1099 325,1099C337.694,1099 348,1088.69 348,1076L348,1024Z" style="fill:rgb(49,50,111);"/>
                    </g>
                    <g transform="matrix(1,0,0,1,875.746,0)">
                        <path d="M348,1024C348,1011.31 337.694,1001 325,1001C312.306,1001 302,1011.31 302,1024L302,1076C302,1088.69 312.306,1099 325,1099C337.694,1099 348,1088.69 348,1076L348,1024Z" style="fill:rgb(49,50,111);"/>
                    </g>
                </g>
                <g transform="matrix(1,0,0,1,30,266)">
                    <path d="M615,512L670,481L701,425L732,481L790,512L732,548L701,603L670,548L615,512Z" style="fill:rgb(235,235,235);"/>
                </g>
                <g transform="matrix(0.696629,0,0,0.696629,788.91,448.933)">
                    <path d="M615,512L670,481L701,425L732,481L790,512L732,548L701,603L670,548L615,512Z" style="fill:rgb(235,235,235);"/>
                </g>
                <g transform="matrix(14.3564,0,0,1,-2951.92,245)">
                    <path d="M314,801C314,719.262 309.385,653 303.691,653C284.317,653 242.683,653 223.309,653C217.615,653 213,719.262 213,801L213,801C213,882.738 217.615,949 223.309,949C242.683,949 284.317,949 303.691,949C309.385,949 314,882.738 314,801L314,801Z" style="fill:rgb(248,117,170);"/>
                </g>
                <g transform="matrix(14.3564,0,0,1,-2951.92,245)">
                    <path d="M314,801C314,719.262 309.385,653 303.691,653C284.317,653 242.683,653 223.309,653C217.615,653 213,719.262 213,801L213,801C213,882.738 217.615,949 223.309,949C242.683,949 284.317,949 303.691,949C309.385,949 314,882.738 314,801L314,801ZM310.564,801L310.564,801C310.564,855.492 307.487,899.667 303.691,899.667C303.691,899.667 223.309,899.667 223.309,899.667C219.513,899.667 216.436,855.492 216.436,801C216.436,801 216.436,801 216.436,801C216.436,746.508 219.513,702.333 223.309,702.333C242.683,702.333 284.317,702.333 303.691,702.333C307.487,702.333 310.564,746.508 310.564,801Z" style="fill:rgb(49,50,111);"/>
                </g>
            </g>
        </g>
    </g>
</svg>
